<svg width="961" height="941" viewBox="0 0 961 941" fill="none" xmlns="http://www.w3.org/2000/svg">
<rect x="0.5" y="0.5" width="960" height="940" rx="470" fill="#22A1BD" stroke="black"/>
<rect x="421.588" y="2.91602" width="666.5" height="666.5" rx="50" transform="rotate(36.9639 421.588 2.91602)" fill="#F0D2B7" fill-opacity="0.76"/>
<rect x="264.105" y="47.2891" width="673.169" height="673.169" rx="50" transform="rotate(17 264.105 47.2891)" fill="#F0D2B7" fill-opacity="0.76"/>
<rect x="117.652" y="168.016" width="673.169" height="673.169" rx="50" transform="rotate(-6 117.652 168.016)" fill="#F0D2B7" fill-opacity="0.76"/>
<rect x="30.0127" y="336.369" width="673.169" height="673.169" rx="50" transform="rotate(-29 30.0127 336.369)" fill="#F0D2B7" fill-opacity="0.76"/>
<circle opacity="0.4" cx="480" cy="468" r="334" fill="#7A1414"/>
<path d="M322.4 292.2V267.6H621.2L625.4 373.8H591.2L578 297.6H437C436.6 323.2 436.2 348.8 435.8 374.4C435.8 400 435.8 425.2 435.8 450H524L532.4 393H560V534.6H532.4L524.6 478.2H435.8C435.8 508.2 435.8 536.4 435.8 562.8C436.2 588.8 436.6 614.2 437 639H590L603.2 562.2H637.4L633.2 669H322.4V644.4L377.6 637.8C378.4 612.6 378.8 587 378.8 561C378.8 535 378.8 509 378.8 483V453.6C378.8 427.6 378.8 401.8 378.8 376.2C378.8 350.2 378.4 324.4 377.6 298.8L322.4 292.2Z" fill="white"/>
</svg>
